<?xml version="1.0"?>
<svg xmlns="http://www.w3.org/2000/svg" xmlns:xlink="http://www.w3.org/1999/xlink" xmlns:svgjs="http://svgjs.com/svgjs" version="1.1" width="512" height="512" x="0" y="0" viewBox="0 0 512 512" style="enable-background:new 0 0 512 512" xml:space="preserve" class=""><g transform="matrix(0.92,0,0,0.9199999999999999,20.47999755859368,20.480000915527313)"><g xmlns="http://www.w3.org/2000/svg"><path d="m369.603 162.563 9.672-16.752c3.3-.021 6.499-1.732 8.271-4.805l19.979-34.602c2.644-4.584 1.066-10.468-3.518-13.115l-26.73-15.433c-4.587-2.65-10.471-1.073-13.12 3.514l-19.978 34.602c-1.763 3.057-1.649 6.689-.02 9.556l-9.643 16.704c-17.408-7.772-36.169-13.042-55.822-15.352v-6.024c23.729-9.256 39.858-32.465 39.858-58.305 0-34.49-28.061-62.551-62.552-62.551s-62.551 28.061-62.551 62.551c0 25.84 16.128 49.049 39.858 58.304v6.027c-19.373 2.278-38.181 7.459-55.841 15.316l-9.621-16.664c1.639-2.881 1.743-6.503-.026-9.565l-19.975-34.598c-1.282-2.222-3.354-3.812-5.832-4.476-2.479-.664-5.067-.323-7.287.96l-26.734 15.435c-4.583 2.647-6.16 8.531-3.513 13.117l19.975 34.598c1.282 2.222 3.354 3.812 5.832 4.476.807.216 1.626.325 2.441.331l9.631 16.681c-5.612 4.087-11.027 8.492-16.218 13.206-3.066 2.784-3.295 7.527-.51 10.594 2.785 3.065 7.527 3.296 10.594.51 32.841-29.823 75.379-46.248 119.778-46.248 98.272 0 178.224 79.95 178.224 178.223s-79.953 178.222-178.225 178.222c-98.273 0-178.224-79.951-178.224-178.224 0-38.805 12.251-75.689 35.43-106.665 2.482-3.316 1.805-8.017-1.512-10.498-3.316-2.483-8.017-1.806-10.498 1.512-25.135 33.59-38.42 73.581-38.42 115.651 0 106.544 86.68 193.224 193.224 193.224s193.224-86.68 193.224-193.224c0-64.12-31.395-121.046-79.621-156.213zm4.845-69.019 17.385 10.037-14.578 25.25-17.385-10.037zm-17.956 40.621 9.139 5.277-8.51 14.74c-2.991-1.844-6.035-3.609-9.13-5.292zm-119.545-62.045v-19.138h38.105v19.138zm-28.498-9.569c0-26.22 21.331-47.551 47.551-47.551s47.552 21.331 47.552 47.551c0 17.6-9.84 33.594-24.858 41.793v-17.226c6.28-.099 11.359-5.238 11.359-11.542v-26.05c0-6.365-5.179-11.544-11.544-11.544h-45.018c-6.365 0-11.544 5.179-11.544 11.544v26.05c0 6.303 5.079 11.443 11.359 11.542v17.226c-15.017-8.198-24.857-24.193-24.857-41.793zm-88.282 41.03 17.385-10.037 14.578 25.251-17.385 10.037zm26.201 35.861 9.139-5.277 8.473 14.676c-3.089 1.675-6.136 3.436-9.136 5.281zm101.939-13.736c0-39.085 0-4.449 0-38.586h15.387v38.585c-5.139-.202-10.247-.202-15.387.001z" fill="#ed3237" data-original="#000000" style="" class=""/><path d="m164.193 449.17c26.978 19.028 58.731 29.064 91.807 29.064 87.926 0 159.458-71.532 159.458-159.458s-71.532-159.458-159.458-159.458c-87.925 0-159.458 71.532-159.458 159.458 0 38.673 14.019 75.974 39.473 105.029 2.729 3.114 7.468 3.428 10.584.699 3.115-2.729 3.429-7.468.699-10.584-23.058-26.319-35.756-60.109-35.756-95.145 0-79.654 64.804-144.458 144.458-144.458s144.458 64.804 144.458 144.458-64.804 144.459-144.458 144.459c-29.274 0-58.171-8.696-83.161-26.322-2.538-1.789-5.81-1.783-8.287-.239-2.151 1.337-3.547 3.732-3.536 6.391.009 2.403 1.16 4.683 3.177 6.106z" fill="#ed3237" data-original="#000000" style="" class=""/><path d="m256 264.423c-4.142 0-7.5 3.357-7.5 7.5v45.43c0 4.921 4.003 8.924 8.925 8.924h124.093c2.37 0 4.686-.967 6.353-2.653 1.69-1.709 2.606-3.972 2.58-6.373-.818-72.973-59.921-132.105-132.925-132.924h-.102c-5.013 0-8.924 4.095-8.924 8.933v43.664c0 4.143 3.358 7.5 7.5 7.5 4.143 0 7.5-3.357 7.5-7.5v-37.369c59.554 3.764 107.959 52.17 111.723 111.723h-111.723v-39.354c0-4.144-3.357-7.501-7.5-7.501z" fill="#ed3237" data-original="#000000" style="" class=""/></g></g></svg>
