<?xml version="1.0"?>
<svg xmlns="http://www.w3.org/2000/svg" xmlns:xlink="http://www.w3.org/1999/xlink" xmlns:svgjs="http://svgjs.com/svgjs" version="1.1" width="512" height="512" x="0" y="0" viewBox="0 0 512.063 512.063" style="enable-background:new 0 0 512 512" xml:space="preserve" class=""><g><g xmlns="http://www.w3.org/2000/svg"><path d="m252.74 425.652h15v15h-15z" transform="matrix(.707 -.707 .707 .707 -230.074 310.93)" fill="#1e8cdb" data-original="#000000" style="" class=""/><path d="m467.243 422.407-74.247-74.247c-8.773-8.771-23.046-8.771-31.819 0l-29.325 29.325c-4.226 4.227-9.876 6.554-15.909 6.554-6.034 0-11.684-2.327-15.909-6.554l-127.279-127.278c-4.227-4.226-6.554-9.876-6.554-15.909s2.327-11.684 6.554-15.909l29.325-29.325c8.771-8.772 8.771-23.046 0-31.82l-31.819-31.818-10.607 10.607 31.819 31.817c2.924 2.925 2.924 7.683 0 10.606l-8.298 8.298-84.852-84.852 8.298-8.298c2.925-2.925 7.682-2.923 10.604 0l31.819 31.819 10.607-10.607-31.819-31.819c-8.774-8.772-23.047-8.771-31.819 0l-29.325 29.325c-18.345 18.345-28.448 42.829-28.448 68.943 0 26.113 10.104 50.598 28.448 68.942l172.337 172.337 10.607-10.607-172.336-172.336c-15.513-15.511-24.055-36.229-24.055-58.335 0-22.107 8.542-42.825 24.055-58.336l10.419-10.419 84.852 84.852-10.419 10.419c-14.621 14.621-14.621 38.412 0 53.033l127.278 127.278c14.621 14.621 38.412 14.621 53.033 0l10.42-10.42 84.852 84.853-10.419 10.419c-32.165 32.167-84.505 32.169-116.672 0l-29.187-29.187-10.607 10.607 29.187 29.187c19.008 19.007 43.976 28.511 68.943 28.511s49.936-9.504 68.943-28.511l29.324-29.325c8.772-8.774 8.772-23.047 0-31.82zm-10.607 21.213-8.298 8.298-84.852-84.853 8.298-8.298c2.923-2.924 7.681-2.924 10.605 0l74.246 74.247c2.926 2.924 2.925 7.682.001 10.606z" fill="#1e8cdb" data-original="#000000" style="" class=""/><path d="m107.089 163.704h15.001v15h-15.001z" transform="matrix(.707 -.707 .707 .707 -87.497 131.172)" fill="#1e8cdb" data-original="#000000" style="" class=""/><path d="m85.876 142.49h15.001v15h-15.001z" transform="matrix(.707 -.707 .707 .707 -78.709 109.958)" fill="#1e8cdb" data-original="#000000" style="" class=""/><path d="m257.338 210.403h42.457c16.849 9.556 35.973 14.597 55.446 14.597 62.032 0 112.5-50.468 112.5-112.5s-50.467-112.5-112.5-112.5-112.5 50.468-112.5 112.5c0 19.478 5.041 38.602 14.597 55.447zm97.903-195.403c53.762 0 97.5 43.738 97.5 97.5s-43.738 97.5-97.5 97.5c-17.485 0-34.64-4.686-49.609-13.55l-1.768-1.047h-31.526v-31.527l-1.047-1.768c-8.864-14.966-13.55-32.12-13.55-49.608 0-53.762 43.739-97.5 97.5-97.5z" fill="#1e8cdb" data-original="#000000" style="" class=""/><path d="m325.241 172.5h60v-30h30v-60h-30v-30h-60v30h-30v60h30zm-15-45v-30h30v-30h30v30h30v30h-30v30h-30v-30z" fill="#1e8cdb" data-original="#000000" style="" class=""/></g></g></svg>
