<?xml version="1.0"?>
<svg xmlns="http://www.w3.org/2000/svg" xmlns:xlink="http://www.w3.org/1999/xlink" xmlns:svgjs="http://svgjs.com/svgjs" version="1.1" width="512" height="512" x="0" y="0" viewBox="0 0 150 150" style="enable-background:new 0 0 512 512" xml:space="preserve"><g><path xmlns="http://www.w3.org/2000/svg" d="m36.887 133.125h-17.341a1 1 0 0 1 -1-1v-43.375a1 1 0 0 1 1-1h17.341a1 1 0 0 1 1 1v43.375a1 1 0 0 1 -1 1zm-16.341-2h15.341v-41.375h-15.341z" fill="#ff7539" data-original="#000000" style=""/><path xmlns="http://www.w3.org/2000/svg" d="m68.258 133.125h-17.341a1 1 0 0 1 -1-1v-74.625a1 1 0 0 1 1-1h17.341a1 1 0 0 1 1 1v74.625a1 1 0 0 1 -1 1zm-16.341-2h15.341v-72.625h-15.341z" fill="#ff7539" data-original="#000000" style=""/><path xmlns="http://www.w3.org/2000/svg" d="m99.629 133.125h-17.341a1 1 0 0 1 -1-1v-91.125a1 1 0 0 1 1-1h17.341a1 1 0 0 1 1 1v91.125a1 1 0 0 1 -1 1zm-16.341-2h15.341v-89.125h-15.341z" fill="#ff7539" data-original="#000000" style=""/><path xmlns="http://www.w3.org/2000/svg" d="m131 133.125h-17.341a1 1 0 0 1 -1-1v-61.358a1 1 0 0 1 1-1h17.341a1 1 0 0 1 1 1v61.358a1 1 0 0 1 -1 1zm-16.341-2h15.341v-59.358h-15.341z" fill="#ff7539" data-original="#000000" style=""/><path xmlns="http://www.w3.org/2000/svg" d="m139 140h-128a1 1 0 0 1 -1-1v-6.875a1 1 0 0 1 1-1h128a1 1 0 0 1 1 1v6.875a1 1 0 0 1 -1 1zm-127-2h126v-4.875h-126z" fill="#ff7539" data-original="#000000" style=""/><path xmlns="http://www.w3.org/2000/svg" d="m28.216 78a9.375 9.375 0 1 1 9.375-9.375 9.386 9.386 0 0 1 -9.375 9.375zm0-16.75a7.375 7.375 0 1 0 7.375 7.375 7.383 7.383 0 0 0 -7.375-7.375z" fill="#ff7539" data-original="#000000" style=""/><path xmlns="http://www.w3.org/2000/svg" d="m59.587 42a9.375 9.375 0 1 1 9.375-9.375 9.386 9.386 0 0 1 -9.375 9.375zm0-16.75a7.375 7.375 0 1 0 7.375 7.375 7.383 7.383 0 0 0 -7.375-7.375z" fill="#ff7539" data-original="#000000" style=""/><path xmlns="http://www.w3.org/2000/svg" d="m90.958 28.75a9.375 9.375 0 1 1 9.375-9.375 9.386 9.386 0 0 1 -9.375 9.375zm0-16.75a7.375 7.375 0 1 0 7.375 7.375 7.383 7.383 0 0 0 -7.375-7.375z" fill="#ff7539" data-original="#000000" style=""/><path xmlns="http://www.w3.org/2000/svg" d="m122.33 56.625a9.375 9.375 0 1 1 9.375-9.375 9.385 9.385 0 0 1 -9.375 9.375zm0-16.75a7.375 7.375 0 1 0 7.375 7.375 7.383 7.383 0 0 0 -7.375-7.375z" fill="#ff7539" data-original="#000000" style=""/><path xmlns="http://www.w3.org/2000/svg" d="m32.049 62.18a1 1 0 0 1 -.753-1.657l20.68-23.74a1 1 0 0 1 1.508 1.317l-20.684 23.737a1 1 0 0 1 -.751.343z" fill="#ff7539" data-original="#000000" style=""/><path xmlns="http://www.w3.org/2000/svg" d="m35.069 64.81a1 1 0 0 1 -.753-1.657l20.684-23.74a1 1 0 1 1 1.5 1.314l-20.68 23.74a1 1 0 0 1 -.751.343z" fill="#ff7539" data-original="#000000" style=""/><path xmlns="http://www.w3.org/2000/svg" d="m66.3 28.61a1 1 0 0 1 -.389-1.921l16.39-6.92a1 1 0 0 1 .778 1.842l-16.39 6.92a.991.991 0 0 1 -.389.079z" fill="#ff7539" data-original="#000000" style=""/><path xmlns="http://www.w3.org/2000/svg" d="m67.851 32.31a1 1 0 0 1 -.39-1.921l16.39-6.92a1 1 0 1 1 .778 1.842l-16.39 6.92a.99.99 0 0 1 -.388.079z" fill="#ff7539" data-original="#000000" style=""/><path xmlns="http://www.w3.org/2000/svg" d="m117.58 41.35a.991.991 0 0 1 -.664-.253l-19.21-17.069a1 1 0 0 1 1.328-1.5l19.21 17.07a1 1 0 0 1 -.664 1.748z" fill="#ff7539" data-original="#000000" style=""/><path xmlns="http://www.w3.org/2000/svg" d="m114.919 44.35a1 1 0 0 1 -.664-.253l-19.21-17.08a1 1 0 1 1 1.33-1.494l19.209 17.077a1 1 0 0 1 -.665 1.747z" fill="#ff7539" data-original="#000000" style=""/><path xmlns="http://www.w3.org/2000/svg" d="m23.841 69.625a1 1 0 0 1 -1-1 5.381 5.381 0 0 1 5.375-5.375 1 1 0 1 1 0 2 3.379 3.379 0 0 0 -3.375 3.375 1 1 0 0 1 -1 1z" fill="#ff7539" data-original="#000000" style=""/><path xmlns="http://www.w3.org/2000/svg" d="m55.212 33.625a1 1 0 0 1 -1-1 5.381 5.381 0 0 1 5.375-5.375 1 1 0 0 1 0 2 3.379 3.379 0 0 0 -3.375 3.375 1 1 0 0 1 -1 1z" fill="#ff7539" data-original="#000000" style=""/><path xmlns="http://www.w3.org/2000/svg" d="m86.583 20.375a1 1 0 0 1 -1-1 5.381 5.381 0 0 1 5.375-5.375 1 1 0 0 1 0 2 3.379 3.379 0 0 0 -3.375 3.375 1 1 0 0 1 -1 1z" fill="#ff7539" data-original="#000000" style=""/><path xmlns="http://www.w3.org/2000/svg" d="m117.955 48.25a1 1 0 0 1 -1-1 5.381 5.381 0 0 1 5.375-5.375 1 1 0 0 1 0 2 3.379 3.379 0 0 0 -3.375 3.375 1 1 0 0 1 -1 1z" fill="#ff7539" data-original="#000000" style=""/><path xmlns="http://www.w3.org/2000/svg" d="m68.259 66.42a1 1 0 0 1 -.586-.19l-10.93-7.92a1 1 0 0 1 1.174-1.62l10.93 7.92a1 1 0 0 1 -.588 1.81z" fill="#ff7539" data-original="#000000" style=""/><path xmlns="http://www.w3.org/2000/svg" d="m68.259 73.96a1 1 0 0 1 -.586-.19l-17.34-12.57a1 1 0 1 1 1.174-1.619l17.34 12.57a1 1 0 0 1 -.588 1.81z" fill="#ff7539" data-original="#000000" style=""/><path xmlns="http://www.w3.org/2000/svg" d="m68.259 81.5a1 1 0 0 1 -.586-.19l-17.34-12.57a1 1 0 1 1 1.174-1.62l17.34 12.57a1 1 0 0 1 -.588 1.81z" fill="#ff7539" data-original="#000000" style=""/><path xmlns="http://www.w3.org/2000/svg" d="m68.259 89.04a1 1 0 0 1 -.586-.19l-17.34-12.57a1 1 0 1 1 1.174-1.62l17.34 12.57a1 1 0 0 1 -.588 1.81z" fill="#ff7539" data-original="#000000" style=""/><path xmlns="http://www.w3.org/2000/svg" d="m68.259 96.58a.993.993 0 0 1 -.586-.191l-17.34-12.569a1 1 0 1 1 1.174-1.62l17.34 12.57a1 1 0 0 1 -.588 1.81z" fill="#ff7539" data-original="#000000" style=""/><path xmlns="http://www.w3.org/2000/svg" d="m68.259 104.12a.993.993 0 0 1 -.586-.191l-17.34-12.569a1 1 0 1 1 1.174-1.62l17.34 12.57a1 1 0 0 1 -.588 1.81z" fill="#ff7539" data-original="#000000" style=""/><path xmlns="http://www.w3.org/2000/svg" d="m68.259 111.67a.993.993 0 0 1 -.586-.191l-17.34-12.57a1 1 0 1 1 1.174-1.619l17.34 12.57a1 1 0 0 1 -.588 1.81z" fill="#ff7539" data-original="#000000" style=""/><path xmlns="http://www.w3.org/2000/svg" d="m68.259 119.21a1 1 0 0 1 -.586-.19l-17.34-12.571a1 1 0 1 1 1.174-1.619l17.34 12.57a1 1 0 0 1 -.588 1.81z" fill="#ff7539" data-original="#000000" style=""/><path xmlns="http://www.w3.org/2000/svg" d="m68.259 126.75a1 1 0 0 1 -.586-.19l-17.34-12.57a1 1 0 1 1 1.174-1.62l17.34 12.57a1 1 0 0 1 -.588 1.81z" fill="#ff7539" data-original="#000000" style=""/><path xmlns="http://www.w3.org/2000/svg" d="m66.649 133.12a1 1 0 0 1 -.586-.19l-15.73-11.4a1 1 0 0 1 1.174-1.62l15.73 11.4a1 1 0 0 1 -.588 1.81z" fill="#ff7539" data-original="#000000" style=""/><path xmlns="http://www.w3.org/2000/svg" d="m131 80.61a1 1 0 0 1 -.586-.19l-12.2-8.84a1 1 0 1 1 1.174-1.62l12.2 8.84a1 1 0 0 1 -.588 1.81z" fill="#ff7539" data-original="#000000" style=""/><path xmlns="http://www.w3.org/2000/svg" d="m131 88.15a.993.993 0 0 1 -.586-.191l-17.34-12.57a1 1 0 0 1 1.174-1.619l17.34 12.57a1 1 0 0 1 -.588 1.81z" fill="#ff7539" data-original="#000000" style=""/><path xmlns="http://www.w3.org/2000/svg" d="m131 95.7a1 1 0 0 1 -.586-.19l-17.34-12.571a1 1 0 0 1 1.174-1.619l17.34 12.57a1 1 0 0 1 -.588 1.81z" fill="#ff7539" data-original="#000000" style=""/><path xmlns="http://www.w3.org/2000/svg" d="m131 103.24a1 1 0 0 1 -.586-.19l-17.34-12.571a1 1 0 0 1 1.174-1.619l17.34 12.57a1 1 0 0 1 -.588 1.81z" fill="#ff7539" data-original="#000000" style=""/><path xmlns="http://www.w3.org/2000/svg" d="m131 110.78a1 1 0 0 1 -.586-.19l-17.34-12.57a1 1 0 0 1 1.174-1.62l17.34 12.57a1 1 0 0 1 -.588 1.81z" fill="#ff7539" data-original="#000000" style=""/><path xmlns="http://www.w3.org/2000/svg" d="m131 118.32a.993.993 0 0 1 -.586-.191l-17.34-12.569a1 1 0 0 1 1.174-1.62l17.34 12.57a1 1 0 0 1 -.588 1.81z" fill="#ff7539" data-original="#000000" style=""/><path xmlns="http://www.w3.org/2000/svg" d="m131 125.86a.993.993 0 0 1 -.586-.191l-17.341-12.569a1 1 0 0 1 1.174-1.62l17.34 12.57a1 1 0 0 1 -.588 1.81z" fill="#ff7539" data-original="#000000" style=""/><path xmlns="http://www.w3.org/2000/svg" d="m130.609 133.12a.993.993 0 0 1 -.586-.191l-16.95-12.29a1 1 0 0 1 1.174-1.619l16.95 12.29a1 1 0 0 1 -.588 1.81z" fill="#ff7539" data-original="#000000" style=""/><path xmlns="http://www.w3.org/2000/svg" d="m120.2 133.12a1 1 0 0 1 -.586-.19l-6.54-4.74a1 1 0 0 1 1.174-1.62l6.54 4.74a1 1 0 0 1 -.588 1.81z" fill="#ff7539" data-original="#000000" style=""/></g></svg>
