<?xml version="1.0"?>
<svg xmlns="http://www.w3.org/2000/svg" xmlns:xlink="http://www.w3.org/1999/xlink" xmlns:svgjs="http://svgjs.com/svgjs" version="1.1" width="512" height="512" x="0" y="0" viewBox="0 0 512 512" style="enable-background:new 0 0 512 512" xml:space="preserve" class=""><g><g xmlns="http://www.w3.org/2000/svg"><path d="m392 497h15v15h-15z" fill="#ff9639" data-original="#000000" style="" class=""/><path d="m452 241.998h-38.5v-241.998h-315v45h15v-30h285v226.998h-131.609l-45 45h-108.391v-226.998h-15v136.999h-38.5c-12.407 0-22.5 10.094-22.5 22.5v270.001c0 12.406 10.093 22.5 22.5 22.5h317v-15h-317c-4.136 0-7.5-3.364-7.5-7.5v-187.502h175.604l45-45h178.896c4.136 0 7.5 3.364 7.5 7.5v225.002c0 4.065-3.435 7.5-7.5 7.5h-30v15h30c12.407 0 22.5-10.094 22.5-22.5v-225.002c0-12.406-10.093-22.5-22.5-22.5zm-399.5-22.499c0-4.136 3.364-7.5 7.5-7.5h38.5v74.999h-46z" fill="#ff9639" data-original="#000000" style="" class=""/><path d="m75 459.5h362.001v15h-362.001z" fill="#ff9639" data-original="#000000" style="" class=""/><path d="m233.5 49.749v22.5h-22.5v45.001h22.5v22.5h45v-22.5h22.5v-45.001h-22.5v-22.5zm52.5 37.5v15.001h-22.5v22.5h-15v-22.5h-22.5v-15.001h22.5v-22.5h15v22.5z" fill="#ff9639" data-original="#000000" style="" class=""/><path d="m196 199.749h120v15h-120z" fill="#ff9639" data-original="#000000" style="" class=""/><path d="m196 162.249h120v15h-120z" fill="#ff9639" data-original="#000000" style="" class=""/><path d="m422 309.498h15v15h-15z" fill="#ff9639" data-original="#000000" style="" class=""/><path d="m368.5 60h15v15h-15z" fill="#ff9639" data-original="#000000" style="" class=""/><path d="m368.5 30h15v15h-15z" fill="#ff9639" data-original="#000000" style="" class=""/><path d="m422 279.498h15v15h-15z" fill="#ff9639" data-original="#000000" style="" class=""/></g></g></svg>
