<?xml version="1.0"?>
<svg xmlns="http://www.w3.org/2000/svg" xmlns:xlink="http://www.w3.org/1999/xlink" xmlns:svgjs="http://svgjs.com/svgjs" version="1.1" width="512" height="512" x="0" y="0" viewBox="0 0 512.01 512.01" style="enable-background:new 0 0 512 512" xml:space="preserve" class=""><g transform="matrix(0.9099999999999999,0,0,0.9099999999999999,23.04044975280766,23.040406494140655)"><g xmlns="http://www.w3.org/2000/svg"><path d="m430.25 437.353 47.066-47.066c4.424-4.425 4.424-11.585 0-16.01l-14.198-14.198c-4.414-4.413-11.594-4.411-16.01.001l-24.863 24.864-10.589-10.589c-4.414-4.415-11.597-4.413-16.011 0l-14.197 14.197c-4.413 4.414-4.413 11.596 0 16.01l32.791 32.79c4.424 4.426 11.585 4.425 16.011.001zm-26.599-49.791 10.588 10.588c4.424 4.427 11.585 4.426 16.011.001l24.864-24.864 8.993 8.994-41.862 41.863-27.588-27.588z" fill="#10489d" data-original="#000000" style="" class=""/><path d="m481.853 331.933v-108.905c0-4.142-3.357-7.5-7.5-7.5s-7.5 3.358-7.5 7.5v99.055c-7.009-3.581-14.593-6.19-22.574-7.649v-152.8c0-5.209-4.238-9.448-9.447-9.448h-331.853c-5.209 0-9.447 4.238-9.447 9.447v35.239h-46.51c-5.209 0-9.447 4.238-9.447 9.448v174.803c0 5.209 4.238 9.448 9.447 9.448h220.848c5.209 0 9.447-4.238 9.447-9.447v-35.239h86.122c-2.903 3.855-5.498 8-7.742 12.41-1.878 3.692-.408 8.207 3.284 10.085 3.688 1.878 8.206.409 10.085-3.284 11.532-22.668 34.55-37.007 60.316-37.007 37.29 0 67.627 30.337 67.627 67.627s-30.337 67.627-67.627 67.627-67.628-30.337-67.628-67.627c0-4.142-3.357-7.5-7.5-7.5s-7.5 3.358-7.5 7.5c0 7.831 1.095 15.41 3.14 22.594h-332.946c-1.074 0-1.948-.874-1.948-1.948v-291.916h30.074c4.143 0 7.5-3.358 7.5-7.5s-3.357-7.5-7.5-7.5h-30.074v-38.255c0-1.075.875-1.95 1.95-1.95h13.8v13.053c0 9.327 7.588 16.916 16.915 16.916h11.885c9.327 0 16.915-7.588 16.915-16.916v-13.052h16.881v13.053c0 9.327 7.589 16.916 16.916 16.916h10.944c9.327 0 16.915-7.588 16.915-16.916v-13.053h17.821v13.053c0 9.327 7.588 16.916 16.915 16.916h10.945c9.327 0 16.915-7.588 16.915-16.916v-13.053h17.82v13.053c0 9.327 7.589 16.916 16.916 16.916h10.944c9.327 0 16.915-7.588 16.915-16.916v-13.053h17.821v13.053c0 9.327 7.588 16.916 16.915 16.916h10.945c9.327 0 16.915-7.588 16.915-16.916v-13.053h17.82v13.053c0 9.327 7.589 16.916 16.916 16.916h10.944c9.327 0 16.915-7.588 16.915-16.916v-13.053h17.821v13.053c0 9.327 7.588 16.916 16.915 16.916h10.945c9.327 0 16.915-7.588 16.915-16.916v-13.053h13.8c1.075 0 1.949.875 1.949 1.95v38.254h-386.774c-4.143 0-7.5 3.358-7.5 7.5s3.357 7.5 7.5 7.5h386.778v63.583c0 4.142 3.357 7.5 7.5 7.5s7.5-3.358 7.5-7.5c0-88.103-.001-100.515-.001-116.837 0-9.346-7.604-16.95-16.949-16.95h-13.8v-3.66c0-9.327-7.588-16.915-16.915-16.915h-10.945c-9.327 0-16.915 7.588-16.915 16.915v3.66h-17.821v-3.66c0-9.327-7.588-16.915-16.915-16.915h-10.944c-9.327 0-16.916 7.588-16.916 16.915v3.66h-17.82v-3.66c0-9.327-7.588-16.915-16.915-16.915h-10.946c-9.327 0-16.915 7.588-16.915 16.915v3.66h-17.821v-3.66c0-9.327-7.588-16.915-16.915-16.915h-10.944c-9.327 0-16.916 7.588-16.916 16.915v3.66h-17.82v-3.66c0-9.327-7.588-16.915-16.915-16.915h-10.945c-9.327 0-16.915 7.588-16.915 16.915v3.66h-17.821v-3.66c0-9.327-7.588-16.915-16.915-16.915h-10.944c-9.327 0-16.916 7.588-16.916 16.915v3.66h-16.883v-3.66c0-9.327-7.588-16.915-16.915-16.915h-11.885c-9.327 0-16.915 7.588-16.915 16.915v3.66h-13.8c-9.346 0-16.95 7.603-16.95 16.949v345.17c0 9.345 7.603 16.948 16.948 16.948h338.865c13.706 26.712 41.538 45.033 73.57 45.033 45.561 0 82.627-37.066 82.627-82.627 0-25.654-11.753-48.616-30.157-63.782zm-220.448-1.004h-40.958v-29.686h40.958zm-96.916 0v-29.686h40.958v29.686zm40.958 15v29.641h-40.958v-29.641zm-96.916-134.057h40.958v29.686h-40.958zm279.789 44.685h40.958v29.686h-40.958zm-15 29.686h-40.957v-29.686h40.957zm55.958-44.686h-40.958v-29.686h40.958zm-55.958 0h-40.957v-29.686h40.957zm-55.957 0h-40.958v-29.686h40.958zm-55.958 0h-40.958v-29.686h40.958zm15-44.685v-29.686h40.958v29.686zm-15 0h-40.958v-29.686h40.958zm-55.958 0h-40.958v-29.686h40.958zm0 15v29.686h-40.958v-29.686zm0 44.685v29.686h-40.958v-29.686zm-55.958 0v29.686h-40.958v-29.686zm-55.958 29.686h-40.957v-29.686h40.957zm-40.957 15h40.957v29.686h-40.957zm55.957 0h40.958v29.686h-40.958zm111.916-15v-29.686h40.958v29.686zm55.958-29.686h40.958v29.686h-40.958zm55.958 44.686h40.957v29.641h-40.957zm55.957 0h40.958v11.846c-14.709.018-28.744 3.87-40.958 10.852zm40.958-104.371h-40.958v-29.686h40.958zm-55.958 0h-40.957v-29.686h40.957zm-223.831-29.686v29.686h-40.958v-29.686zm-55.958 44.686v29.686h-40.957v-29.686zm-40.957 134.057h40.957v29.641h-40.957zm55.957 0h40.958v29.641h-40.958zm111.916 29.641v-29.641h41.87v29.641zm55.958-44.686v-29.641h40.958v29.641zm144.922-280.302c0-1.056.859-1.915 1.915-1.915h10.945c1.056 0 1.915.859 1.915 1.915v31.712c0 1.056-.859 1.916-1.915 1.916h-10.945c-1.056 0-1.915-.859-1.915-1.916zm-62.597 0c0-1.056.859-1.915 1.916-1.915h10.944c1.056 0 1.915.859 1.915 1.915v31.712c0 1.056-.859 1.916-1.915 1.916h-10.944c-1.057 0-1.916-.859-1.916-1.916zm-62.595 0c0-1.056.859-1.915 1.915-1.915h10.945c1.056 0 1.915.859 1.915 1.915v31.712c0 1.056-.859 1.916-1.915 1.916h-10.945c-1.056 0-1.915-.859-1.915-1.916zm-62.597 0c0-1.056.859-1.915 1.916-1.915h10.944c1.056 0 1.915.859 1.915 1.915v31.712c0 1.056-.859 1.916-1.915 1.916h-10.944c-1.057 0-1.916-.859-1.916-1.916zm-62.596 0c0-1.056.859-1.915 1.915-1.915h10.945c1.056 0 1.915.859 1.915 1.915v31.712c0 1.056-.859 1.916-1.915 1.916h-10.945c-1.056 0-1.915-.859-1.915-1.916zm-62.596 0c0-1.056.859-1.915 1.916-1.915h10.944c1.056 0 1.915.859 1.915 1.915v31.712c0 1.056-.859 1.916-1.915 1.916h-10.944c-1.057 0-1.916-.859-1.916-1.916zm-62.596 0c0-1.056.859-1.915 1.915-1.915h11.885c1.056 0 1.915.859 1.915 1.915v31.712c0 1.056-.859 1.916-1.915 1.916h-11.885c-1.056 0-1.915-.859-1.915-1.916z" fill="#10489d" data-original="#000000" style="" class=""/></g></g></svg>
