<?xml version="1.0"?>
<svg xmlns="http://www.w3.org/2000/svg" xmlns:xlink="http://www.w3.org/1999/xlink" xmlns:svgjs="http://svgjs.com/svgjs" version="1.1" width="512" height="512" x="0" y="0" viewBox="0 0 512 512" style="enable-background:new 0 0 512 512" xml:space="preserve" class=""><g transform="matrix(0.9199999999999998,0,0,0.9199999999999998,20.479960021972687,20.479999084472666)"><g xmlns="http://www.w3.org/2000/svg"><path d="m36.107 401.445c-4.143 0-7.5 3.357-7.5 7.5v83.393c0 10.842 8.82 19.662 19.662 19.662h415.458c10.844 0 19.665-8.821 19.665-19.665v-444.302c0-10.842-8.821-19.663-19.664-19.663h-23.544v-8.751c.001-10.818-8.801-19.619-19.62-19.619h-6.833c-10.818 0-19.62 8.801-19.62 19.619v8.751h-34.501v-8.751c0-10.818-8.8-19.619-19.619-19.619h-6.834c-10.818 0-19.619 8.801-19.619 19.619v8.751h-34.502v-8.751c0-10.818-8.801-19.619-19.619-19.619h-6.834c-10.818 0-19.619 8.801-19.619 19.619v8.751h-34.502v-8.751c0-10.818-8.801-19.619-19.619-19.619h-6.834c-10.819 0-19.619 8.801-19.619 19.619v8.751h-34.501v-8.751c0-10.818-8.802-19.619-19.62-19.619h-6.833c-10.818 0-19.62 8.801-19.62 19.619v8.751h-23.545c-10.843 0-19.664 8.821-19.664 19.663v325.912c0 4.143 3.357 7.5 7.5 7.5s7.5-3.357 7.5-7.5v-259.516h15.346c4.143 0 7.5-3.357 7.5-7.5s-3.357-7.5-7.5-7.5h-15.346v-51.396c0-2.571 2.093-4.663 4.664-4.663h23.544v18.955c0 10.818 8.802 19.62 19.62 19.62h6.833c10.818 0 19.62-8.802 19.62-19.62v-18.955h34.501v18.955c0 10.818 8.801 19.62 19.619 19.62h6.834c10.818 0 19.619-8.802 19.619-19.62v-18.955h34.502v18.955c0 10.818 8.801 19.62 19.619 19.62h6.834c10.818 0 19.619-8.802 19.619-19.62v-18.955h34.502v18.955c0 10.818 8.801 19.62 19.619 19.62h6.834c10.818 0 19.619-8.802 19.619-19.62v-18.955h34.501v18.955c0 10.818 8.802 19.62 19.62 19.62h6.833c10.818 0 19.62-8.802 19.62-19.62v-18.955h23.544c2.571 0 4.664 2.092 4.664 4.663v51.396h-374.438c-4.143 0-7.5 3.357-7.5 7.5s3.357 7.5 7.5 7.5h374.439v377.906c0 2.572-2.093 4.665-4.665 4.665h-415.457c-2.57 0-4.662-2.092-4.662-4.662v-83.393c-.001-4.142-3.358-7.5-7.501-7.5zm66.782-339.12c0 2.548-2.072 4.62-4.62 4.62h-6.833c-2.548 0-4.62-2.072-4.62-4.62v-42.706c0-2.547 2.072-4.619 4.62-4.619h6.833c2.548 0 4.62 2.072 4.62 4.619zm80.573 0c0 2.548-2.072 4.62-4.619 4.62h-6.834c-2.547 0-4.619-2.072-4.619-4.62v-42.706c0-2.547 2.072-4.619 4.619-4.619h6.834c2.547 0 4.619 2.072 4.619 4.619zm80.574 0c0 2.548-2.072 4.62-4.619 4.62h-6.834c-2.547 0-4.619-2.072-4.619-4.62v-42.706c0-2.547 2.072-4.619 4.619-4.619h6.834c2.547 0 4.619 2.072 4.619 4.619zm80.574 0c0 2.548-2.072 4.62-4.619 4.62h-6.834c-2.547 0-4.619-2.072-4.619-4.62v-42.706c0-2.547 2.072-4.619 4.619-4.619h6.834c2.547 0 4.619 2.072 4.619 4.619zm80.575 0c0 2.548-2.072 4.62-4.62 4.62h-6.833c-2.548 0-4.62-2.072-4.62-4.62v-42.706c0-2.547 2.072-4.619 4.62-4.619h6.833c2.548 0 4.62 2.072 4.62 4.619z" fill="#ed3237" data-original="#000000" style="" class=""/><path d="m125.334 370.973c0 3.576 1.394 6.938 3.921 9.465l51.87 51.87c5.218 5.216 13.709 5.217 18.929-.001l55.946-55.948 55.948 55.948c5.219 5.217 13.71 5.216 18.929-.001l51.866-51.868c2.529-2.528 3.923-5.89 3.923-9.466 0-3.575-1.393-6.937-3.921-9.466l-55.946-55.946 55.944-55.945c2.529-2.528 3.923-5.89 3.923-9.466 0-3.575-1.393-6.938-3.921-9.466l-51.867-51.866c-2.528-2.529-5.89-3.923-9.466-3.923-3.575 0-6.937 1.393-9.466 3.921l-15.17 15.17c-2.929 2.93-2.929 7.678 0 10.607 2.93 2.928 7.678 2.928 10.607 0l14.028-14.028 49.584 49.585-59.719 59.719c-3.145 3.145-3.146 8.239 0 11.386l59.719 59.719-49.585 49.585-59.719-59.72c-3.145-3.145-8.238-3.146-11.385 0l-59.719 59.72-49.585-49.585 59.719-59.719c3.145-3.145 3.146-8.239 0-11.386l-59.719-59.719 49.584-49.585 59.72 59.72c3.139 3.139 8.246 3.139 11.385 0l20.372-20.372c2.929-2.93 2.929-7.678 0-10.607-2.93-2.928-7.678-2.928-10.607 0l-15.456 15.458-55.946-55.947c-5.221-5.219-13.71-5.217-18.931 0l-51.868 51.868c-2.528 2.528-3.921 5.891-3.921 9.466 0 3.576 1.394 6.938 3.921 9.465l55.946 55.946-55.946 55.946c-2.528 2.529-3.921 5.89-3.921 9.466z" fill="#ed3237" data-original="#000000" style="" class=""/></g></g></svg>
