<?xml version="1.0"?>
<svg xmlns="http://www.w3.org/2000/svg" xmlns:xlink="http://www.w3.org/1999/xlink" xmlns:svgjs="http://svgjs.com/svgjs" version="1.1" width="512" height="512" x="0" y="0" viewBox="0 0 512 512" style="enable-background:new 0 0 512 512" xml:space="preserve" class=""><g><g xmlns="http://www.w3.org/2000/svg"><path d="m428.213 51.968-21.213 21.213-21.213-21.213-31.819 31.819 21.212 21.213-21.213 21.214 31.82 31.819 21.213-21.213 21.213 21.213 31.819-31.819-21.213-21.214 21.213-21.213zm10.606 74.246-10.606 10.606-21.213-21.213-21.213 21.213-10.607-10.606 21.213-21.214-21.213-21.213 10.606-10.606 21.214 21.213 21.213-21.213 10.606 10.606-21.213 21.213z" fill="#ed3237" data-original="#000000" style="" class=""/><path d="m512 105c0-57.897-47.103-105-105-105-21.401 0-41.324 6.441-57.941 17.479-29.668-11.589-60.951-17.479-93.059-17.479-68.38 0-132.667 26.629-181.02 74.98-48.351 48.352-74.98 112.64-74.98 181.02s26.629 132.668 74.98 181.02c48.353 48.351 112.64 74.98 181.02 74.98 65.486 0 127.802-24.722 175.466-69.61l-10.284-10.92c-44.87 42.258-103.533 65.53-165.182 65.53-64.374 0-124.894-25.068-170.413-70.587s-70.587-106.039-70.587-170.413 25.068-124.894 70.587-170.413 106.039-70.587 170.413-70.587c27.248 0 53.862 4.5 79.294 13.373-4 3.745-7.709 7.796-11.085 12.12-22.006-6.961-44.923-10.493-68.209-10.493-57.465 0-112.235 21.597-154.221 60.811l10.238 10.963c39.199-36.612 90.333-56.774 143.983-56.774 20.279 0 40.254 2.868 59.514 8.522-8.599 15.221-13.514 32.785-13.514 51.478 0 18.133 4.68 35.936 13.554 51.628v39.818h39.819c15.696 8.874 33.499 13.555 51.626 13.555 18.694 0 36.258-4.916 51.479-13.515 5.655 19.26 8.522 39.234 8.522 59.514 0 56.364-21.947 109.353-61.797 149.203-39.85 39.851-92.838 61.797-149.203 61.797s-109.353-21.946-149.203-61.797c-39.85-39.85-61.797-92.839-61.797-149.203 0-53.653 20.162-104.787 56.773-143.982l-10.962-10.238c-39.214 41.981-60.811 96.751-60.811 154.22 0 60.371 23.507 117.126 66.19 159.81 42.684 42.683 99.439 66.19 159.81 66.19s117.126-23.507 159.81-66.19c42.683-42.684 66.19-99.439 66.19-159.81 0-23.287-3.532-46.205-10.492-68.209 4.324-3.377 8.375-7.086 12.12-11.086 8.872 25.428 13.372 52.042 13.372 79.295 0 61.646-23.272 120.31-65.53 165.182l10.92 10.283c44.888-47.665 69.61-109.981 69.61-175.465 0-32.114-5.889-63.396-17.479-93.059 11.038-16.617 17.479-36.54 17.479-57.941zm-150.792 77.493-1.768-1.047h-28.886v-28.886l-1.047-1.768c-8.183-13.813-12.507-29.647-12.507-45.792 0-49.626 40.374-90 90-90s90 40.374 90 90c0 49.627-40.374 90.001-90 90.001-16.14 0-31.975-4.325-45.792-12.508z" fill="#ed3237" data-original="#000000" style="" class=""/><path d="m93.026 201.563-3.918 14.479 14.762 3.995c-5.532 13.497-7.712 28.111-6.312 42.824l-16.917 3.005 2.623 14.77 16.917-3.005c3.375 12.859 9.443 24.644 17.792 34.721l-11.336 7.203 8.045 12.66 14.023-8.911c2.334 2.005 4.777 3.909 7.334 5.694 4.109 2.869 8.894 4.365 13.804 4.364 1.422 0 2.855-.125 4.285-.379 6.365-1.131 11.908-4.672 15.608-9.972 5.634-8.067 5.647-18.401.882-26.338l10.236-6.504-8.044-12.66-13.277 8.436c-5.128-4.63-9.006-10.381-11.369-16.837l15.938-2.831-2.623-14.77-15.938 2.831c-.006-7.527 1.984-14.886 5.831-21.443l14.163 3.833 3.919-14.479-12.038-3.258c.273-2.328.206-4.708-.216-7.081-1.13-6.364-4.671-11.907-9.971-15.607-5.299-3.703-11.723-5.117-18.088-3.987-6.365 1.131-11.908 4.672-15.609 9.972-.94 1.346-1.833 2.714-2.694 4.097zm32.807 9.312c1.407-2.015 3.515-3.36 5.934-3.79.543-.097 1.088-.145 1.628-.145 1.867 0 3.686.568 5.249 1.66 2.015 1.406 3.36 3.514 3.791 5.934.43 2.419-.108 4.861-1.515 6.876-8.81 12.615-12.18 27.904-9.49 43.052 2.69 15.146 11.119 28.34 23.734 37.149 4.159 2.905 5.18 8.652 2.276 12.812-1.407 2.015-3.515 3.36-5.935 3.791-2.418.427-4.862-.109-6.876-1.515-16.642-11.623-27.762-29.032-31.313-49.021s.895-40.161 12.517-56.803z" fill="#ed3237" data-original="#000000" style="" class=""/><path d="m304.954 320.981-.213 12.488c-8.553 1.129-16.238 6.798-19.504 15.414-2.291 6.044-2.091 12.619.563 18.514s7.445 10.402 13.49 12.693v-.001c1.534.582 3.08 1.108 4.632 1.604l-.314 18.458 14.998.256.26-15.274c4.223.602 8.468.912 12.711.912 10.266 0 20.512-1.763 30.364-5.273l7.046 15.646 13.678-6.16-7.055-15.665c11.641-6.42 21.582-15.189 29.309-25.751l9.758 9.227 10.306-10.898-12.073-11.416c1.373-2.753 2.62-5.589 3.725-8.504 4.729-12.479-1.575-26.478-14.052-31.207-9.2-3.485-19.223-.968-25.753 5.593l-8.812-8.333-10.306 10.898 11.429 10.807c-3.234 6.106-7.86 11.273-13.543 15.144l-6.646-14.76-13.678 6.158 6.647 14.761c-7.297 1.849-14.919 1.721-22.218-.405l.25-14.671zm50.238 26.539c14.027-6.317 24.756-17.72 30.209-32.107 1.798-4.743 7.123-7.142 11.864-5.342 4.744 1.798 7.14 7.119 5.342 11.863-7.194 18.98-21.351 34.023-39.862 42.359-18.512 8.337-39.16 8.963-58.139 1.771v-.001c-2.297-.87-4.119-2.584-5.128-4.825s-1.085-4.74-.214-7.038c1.393-3.674 4.898-5.94 8.613-5.94 1.081 0 2.181.192 3.25.598 14.388 5.454 30.038 4.979 44.065-1.338z" fill="#ed3237" data-original="#000000" style="" class=""/><path d="m207.613 126.714c-16.542 0-30 13.458-30 30s13.458 30 30 30 30-13.458 30-30-13.458-30-30-30zm0 45c-8.271 0-15-6.729-15-15s6.729-15 15-15 15 6.729 15 15-6.729 15-15 15z" fill="#ed3237" data-original="#000000" style="" class=""/><path d="m199.333 350.28c-16.542 0-30 13.458-30 30s13.458 30 30 30 30-13.458 30-30-13.458-30-30-30zm0 45c-8.271 0-15-6.729-15-15s6.729-15 15-15 15 6.729 15 15-6.729 15-15 15z" fill="#ed3237" data-original="#000000" style="" class=""/><path d="m226 266.759c0 20.677 16.822 37.499 37.5 37.499s37.5-16.822 37.5-37.499c0-20.678-16.822-37.5-37.5-37.5s-37.5 16.822-37.5 37.5zm60 0c0 12.406-10.093 22.499-22.5 22.499s-22.5-10.093-22.5-22.499 10.093-22.5 22.5-22.5 22.5 10.094 22.5 22.5z" fill="#ed3237" data-original="#000000" style="" class=""/><path d="m263.5 67.5h15v15h-15z" fill="#ed3237" data-original="#000000" style="" class=""/><path d="m233.5 67.5h15v15h-15z" fill="#ed3237" data-original="#000000" style="" class=""/></g></g></svg>
