<?xml version="1.0"?>
<svg xmlns="http://www.w3.org/2000/svg" xmlns:xlink="http://www.w3.org/1999/xlink" xmlns:svgjs="http://svgjs.com/svgjs" version="1.1" width="512" height="512" x="0" y="0" viewBox="0 0 512 512" style="enable-background:new 0 0 512 512" xml:space="preserve" class=""><g transform="matrix(0.9500000000000001,0,0,0.9500000000000001,12.800008201599098,12.799999999999983)"><g xmlns="http://www.w3.org/2000/svg"><path d="m264.242 83.921c14.082 0 25.538-11.456 25.538-25.538 0-14.081-11.456-25.537-25.538-25.537s-25.538 11.456-25.538 25.537c0 14.082 11.457 25.538 25.538 25.538zm0-36.075c5.811 0 10.538 4.727 10.538 10.537s-4.727 10.538-10.538 10.538-10.538-4.728-10.538-10.538 4.728-10.537 10.538-10.537z" fill="#1b2035" data-original="#000000" style=""/><path d="m235.126 100.787c-1.825 3.719-.29 8.212 3.429 10.037 8.036 3.943 16.679 5.942 25.687 5.942 8.928 0 17.5-1.965 25.479-5.841 3.726-1.81 5.279-6.297 3.47-10.022s-6.296-5.278-10.023-3.47c-5.92 2.875-12.288 4.333-18.926 4.333-6.698 0-13.117-1.483-19.08-4.409-3.716-1.824-8.212-.288-10.036 3.43z" fill="#1b2035" data-original="#000000" style=""/><path d="m29.742 472.529 17.955 17.956c6.315 6.314 16.532 6.313 22.846 0l42.596-42.596h109.491l-2.106 12.208c-4.669 27.082 16.177 51.903 43.718 51.903 27.48 0 48.399-24.762 43.717-51.902l-2.106-12.208h168.139c4.684 0 8.88-2.421 11.226-6.477 2.348-4.059 2.354-8.908.01-12.984-.088-.152-54.507-94.392-54.397-94.201-3.538-6.138-5.408-13.119-5.408-20.187v-83.93c0-26.431-6.498-52.467-18.838-75.667l59.387-59.387c6.299-6.299 6.299-16.549 0-22.848l-17.955-17.954c-6.299-6.299-16.548-6.299-22.846 0l-54.663 54.663c-15.088-13.217-32.678-23.626-51.452-30.431 2.939-8.03 4.091-16.685 3.339-25.298-2.275-26.145-24.623-53.189-58.083-53.189-32.229 0-58.45 26.189-58.45 58.38 0 6.939 1.194 13.68 3.558 20.101-30.162 10.889-56.105 30.316-75.225 56.384-2.45 3.34-1.729 8.033 1.611 10.483 3.341 2.45 8.034 1.728 10.483-1.612 18.106-24.684 42.946-42.802 71.823-52.394 6.331-2.087 9.339-9.087 6.607-15.066-2.559-5.629-3.857-11.65-3.857-17.896 0-23.92 19.492-43.38 43.45-43.38 27.386 0 41.712 23.093 43.139 39.492.664 7.607-.659 15.245-3.815 22.067-2.734 5.86.163 12.63 6.274 14.636 18.228 5.993 35.36 15.733 49.966 28.355l-210.94 210.94h-33.379c1.65-5.306 2.501-10.854 2.501-16.446v-83.938c0-19.748 3.868-38.901 11.496-56.928 1.615-3.814-.169-8.216-3.984-9.83-3.812-1.61-8.215.17-9.83 3.984-8.416 19.886-12.683 41.006-12.683 62.773v83.938c0 7.079-1.871 14.061-5.41 20.191-4.408 7.64 11.187-19.375-21.441 37.145-2.071 3.588-.841 8.175 2.746 10.245 3.562 2.059 8.161.864 10.245-2.745l19.275-33.39h25.463l-61.492 61.492c.522-3.01-.84-6.159-3.639-7.776-3.587-2.071-8.174-.846-10.246 2.742l-15.301 26.48c-1.655 2.864-2.101 6.138-1.449 9.189l-12.066 12.066c-6.299 6.3-6.299 16.549 0 22.847zm263.436-9.883c3.091 17.927-10.71 34.354-28.936 34.354-18.19 0-32.034-16.39-28.936-34.354l2.546-14.757h52.781zm-252.829-2.355 395.428-395.429c.45-.451 1.183-.451 1.633 0l17.955 17.954c.45.45.45 1.183 0 1.633-35.793 35.794-90.837 90.837-127.917 127.917-2.929 2.93-2.929 7.678 0 10.607 2.929 2.928 7.678 2.928 10.606 0l57.385-57.385c9.827 19.981 14.983 42.093 14.983 64.522v83.93c0 5.591.853 11.14 2.504 16.45h-41.474c-4.142 0-7.5 3.357-7.5 7.5s3.358 7.5 7.5 7.5h48.561l50.469 87.399c-70.092 0-280.136 0-342.343 0l87.399-87.399h120.914c4.142 0 7.5-3.357 7.5-7.5s-3.358-7.5-7.5-7.5h-105.914l81.417-81.417c2.929-2.93 2.929-7.678 0-10.607-2.929-2.928-7.678-2.928-10.606 0l-241.413 241.412c-.45.45-1.183.452-1.633 0l-17.955-17.955c-.45-.45-.45-1.182.001-1.632z" fill="#1b2035" data-original="#000000" style=""/></g></g></svg>
