<?xml version="1.0"?>
<svg xmlns="http://www.w3.org/2000/svg" xmlns:xlink="http://www.w3.org/1999/xlink" xmlns:svgjs="http://svgjs.com/svgjs" version="1.1" width="512" height="512" x="0" y="0" viewBox="0 0 150 150" style="enable-background:new 0 0 512 512" xml:space="preserve"><g><path xmlns="http://www.w3.org/2000/svg" d="m126.136 119.651h-115.136a1 1 0 0 1 -1-1v-73.145a1 1 0 0 1 1-1h115.136a1 1 0 0 1 1 1v73.145a1 1 0 0 1 -1 1zm-114.136-2h113.136v-71.145h-113.136z" fill="#ed3237" data-original="#000000" style=""/><path xmlns="http://www.w3.org/2000/svg" d="m132.57 112.573h-6.429a1 1 0 0 1 0-2h5.429v-71.146h-113.145v6.079a1 1 0 0 1 -2 0v-7.079a1 1 0 0 1 1-1h115.145a1 1 0 0 1 1 1v73.146a1 1 0 0 1 -1 1z" fill="#ed3237" data-original="#000000" style=""/><path xmlns="http://www.w3.org/2000/svg" d="m139 105.494h-6.43a1 1 0 0 1 0-2h5.43v-71.145h-113.146v6.078a1 1 0 0 1 -2 0v-7.078a1 1 0 0 1 1-1h115.146a1 1 0 0 1 1 1v73.145a1 1 0 0 1 -1 1z" fill="#ed3237" data-original="#000000" style=""/><path xmlns="http://www.w3.org/2000/svg" d="m110.072 112.573h-83.009a1 1 0 0 1 -1-1 7.994 7.994 0 0 0 -7.984-7.985 1 1 0 0 1 -1-1v-41.019a1 1 0 0 1 1-1 7.994 7.994 0 0 0 7.984-7.985 1 1 0 0 1 1-1h83.009a1 1 0 0 1 1 1 7.994 7.994 0 0 0 7.986 7.985 1 1 0 0 1 1 1v41.019a1 1 0 0 1 -1 1 7.994 7.994 0 0 0 -7.986 7.985 1 1 0 0 1 -1 1zm-82.058-2h81.108a10 10 0 0 1 8.936-8.935v-39.119a10 10 0 0 1 -8.936-8.935h-81.108a10 10 0 0 1 -8.935 8.935v39.119a10 10 0 0 1 8.935 8.935z" fill="#ed3237" data-original="#000000" style=""/><path xmlns="http://www.w3.org/2000/svg" d="m37.553 78.035h-9.389a1 1 0 0 1 0-2h9.389a1 1 0 0 1 0 2z" fill="#ed3237" data-original="#000000" style=""/><path xmlns="http://www.w3.org/2000/svg" d="m39.4 83.078h-13.083a1 1 0 0 1 0-2h13.083a1 1 0 0 1 0 2z" fill="#ed3237" data-original="#000000" style=""/><path xmlns="http://www.w3.org/2000/svg" d="m37.553 88.122h-9.389a1 1 0 0 1 0-2h9.389a1 1 0 0 1 0 2z" fill="#ed3237" data-original="#000000" style=""/><path xmlns="http://www.w3.org/2000/svg" d="m108.973 78.035h-9.39a1 1 0 0 1 0-2h9.39a1 1 0 0 1 0 2z" fill="#ed3237" data-original="#000000" style=""/><path xmlns="http://www.w3.org/2000/svg" d="m110.818 83.078h-13.081a1 1 0 0 1 0-2h13.081a1 1 0 1 1 0 2z" fill="#ed3237" data-original="#000000" style=""/><path xmlns="http://www.w3.org/2000/svg" d="m108.973 88.122h-9.39a1 1 0 0 1 0-2h9.39a1 1 0 0 1 0 2z" fill="#ed3237" data-original="#000000" style=""/><path xmlns="http://www.w3.org/2000/svg" d="m68.568 104.167a22.089 22.089 0 1 1 22.088-22.089 22.115 22.115 0 0 1 -22.088 22.089zm0-42.177a20.089 20.089 0 1 0 20.088 20.088 20.112 20.112 0 0 0 -20.088-20.088z" fill="#ed3237" data-original="#000000" style=""/><path xmlns="http://www.w3.org/2000/svg" d="m68.568 95.937a7.437 7.437 0 0 1 -7.429-7.429 1 1 0 0 1 2 0 5.429 5.429 0 1 0 5.429-5.43 7.43 7.43 0 1 1 7.432-7.429 1 1 0 0 1 -2 0 5.429 5.429 0 1 0 -5.429 5.429 7.43 7.43 0 0 1 0 14.859z" fill="#ed3237" data-original="#000000" style=""/><path xmlns="http://www.w3.org/2000/svg" d="m68.568 97.531a1 1 0 0 1 -1-1v-28.9a1 1 0 0 1 2 0v28.9a1 1 0 0 1 -1 1z" fill="#ed3237" data-original="#000000" style=""/></g></svg>
