<?xml version="1.0"?>
<svg xmlns="http://www.w3.org/2000/svg" xmlns:xlink="http://www.w3.org/1999/xlink" xmlns:svgjs="http://svgjs.com/svgjs" version="1.1" width="512" height="512" x="0" y="0" viewBox="0 0 150 150" style="enable-background:new 0 0 512 512" xml:space="preserve" class=""><g><path xmlns="http://www.w3.org/2000/svg" d="m30 132.574h-6.584a1 1 0 0 1 -1-1v-117.281a4.293 4.293 0 1 1 8.586 0v117.281a1 1 0 0 1 -1.002 1zm-5.586-2h4.586v-116.281a2.293 2.293 0 1 0 -4.586 0z" fill="#10489d" data-original="#000000" style="" class=""/><path xmlns="http://www.w3.org/2000/svg" d="m77.444 66.578c-6.281 0-12.294-1.421-18.185-2.812-9.64-2.278-18.747-4.429-28.933-.94a1 1 0 0 1 -1.326-.947v-43.1a1 1 0 0 1 .677-.946c10.732-3.675 20.548-1.356 30.04.886 9.64 2.277 18.746 4.429 28.933.94a1 1 0 0 1 1.325.946v43.1a1 1 0 0 1 -.677.946 36.143 36.143 0 0 1 -11.854 1.927zm-35.91-7.571c6.281 0 12.3 1.421 18.185 2.812 9.427 2.227 18.342 4.333 28.258 1.164v-41.012c-10.22 3.058-19.618.839-28.718-1.31-9.427-2.228-18.342-4.334-28.259-1.161v41.009a36.325 36.325 0 0 1 10.534-1.502z" fill="#10489d" data-original="#000000" style="" class=""/><path xmlns="http://www.w3.org/2000/svg" d="m83.4 60.438a1 1 0 0 1 -1-1v-8.738a1 1 0 0 1 2 0v8.742a1 1 0 0 1 -1 .996z" fill="#10489d" data-original="#000000" style="" class=""/><path xmlns="http://www.w3.org/2000/svg" d="m69.569 28.446a1.044 1.044 0 0 1 -.146-.01c-4.006-.585-7.959-1.519-11.447-2.342-1.58-.373-3.133-.738-4.671-1.073a1 1 0 0 1 .426-1.955c1.55.339 3.115.705 4.7 1.081 3.448.815 7.356 1.738 11.276 2.31a1 1 0 0 1 -.143 1.989z" fill="#10489d" data-original="#000000" style="" class=""/><path xmlns="http://www.w3.org/2000/svg" d="m42.146 140h-30.873a1 1 0 0 1 -.995-1.1c.483-4.9 4.807-8.328 10.516-8.328h11.831c5.708 0 10.032 3.425 10.516 8.328a1 1 0 0 1 -.995 1.1zm-29.677-2h28.481c-.879-3.245-4.141-5.426-8.325-5.426h-11.831c-4.185 0-7.447 2.181-8.325 5.426z" fill="#10489d" data-original="#000000" style="" class=""/><path xmlns="http://www.w3.org/2000/svg" d="m70.057 140h-11.714a1 1 0 0 1 -1-1v-28.4a1 1 0 0 1 1-1h11.714a1 1 0 0 1 1 1v28.4a1 1 0 0 1 -1 1zm-10.714-2h9.714v-26.4h-9.714z" fill="#10489d" data-original="#000000" style="" class=""/><path xmlns="http://www.w3.org/2000/svg" d="m91.543 140h-11.713a1 1 0 0 1 -1-1v-41.29a1 1 0 0 1 1-1h11.713a1 1 0 0 1 1 1v41.29a1 1 0 0 1 -1 1zm-10.713-2h9.713v-39.29h-9.713z" fill="#10489d" data-original="#000000" style="" class=""/><path xmlns="http://www.w3.org/2000/svg" d="m113.029 140h-11.713a1 1 0 0 1 -1-1v-51.812a1 1 0 0 1 1-1h11.713a1 1 0 0 1 1 1v51.812a1 1 0 0 1 -1 1zm-10.713-2h9.713v-49.812h-9.713z" fill="#10489d" data-original="#000000" style="" class=""/><path xmlns="http://www.w3.org/2000/svg" d="m134.516 140h-11.716a1 1 0 0 1 -1-1v-67.074a1 1 0 0 1 1-1h11.714a1 1 0 0 1 1 1v67.074a1 1 0 0 1 -.998 1zm-10.716-2h9.714v-65.074h-9.714z" fill="#10489d" data-original="#000000" style="" class=""/><path xmlns="http://www.w3.org/2000/svg" d="m66.478 96.376a1 1 0 0 1 -.769-1.639l14.433-17.337a1 1 0 1 1 1.537 1.28l-14.432 17.336a1 1 0 0 1 -.769.36z" fill="#10489d" data-original="#000000" style="" class=""/><path xmlns="http://www.w3.org/2000/svg" d="m110.438 76.247a1 1 0 0 1 -.659-1.753l15.371-13.432a1 1 0 1 1 1.317 1.505l-15.367 13.433a1 1 0 0 1 -.662.247z" fill="#10489d" data-original="#000000" style="" class=""/><path xmlns="http://www.w3.org/2000/svg" d="m103.548 77.8a.838.838 0 0 1 -.086 0l-16.029-1.37a1 1 0 1 1 .17-1.993l16.029 1.37a1 1 0 0 1 -.084 2z" fill="#10489d" data-original="#000000" style="" class=""/><path xmlns="http://www.w3.org/2000/svg" d="m64.2 102.8a4.626 4.626 0 1 1 4.626-4.626 4.631 4.631 0 0 1 -4.626 4.626zm0-7.252a2.626 2.626 0 1 0 2.626 2.626 2.63 2.63 0 0 0 -2.626-2.624z" fill="#10489d" data-original="#000000" style="" class=""/><path xmlns="http://www.w3.org/2000/svg" d="m83.948 80.692a4.626 4.626 0 1 1 4.626-4.625 4.631 4.631 0 0 1 -4.626 4.625zm0-7.251a2.626 2.626 0 1 0 2.626 2.626 2.628 2.628 0 0 0 -2.626-2.626z" fill="#10489d" data-original="#000000" style="" class=""/><path xmlns="http://www.w3.org/2000/svg" d="m107.173 81.426a4.626 4.626 0 1 1 4.627-4.626 4.631 4.631 0 0 1 -4.627 4.626zm0-7.251a2.626 2.626 0 1 0 2.627 2.625 2.629 2.629 0 0 0 -2.627-2.625z" fill="#10489d" data-original="#000000" style="" class=""/><path xmlns="http://www.w3.org/2000/svg" d="m128.659 64.2a4.626 4.626 0 1 1 4.626-4.625 4.631 4.631 0 0 1 -4.626 4.625zm0-7.251a2.626 2.626 0 1 0 2.626 2.626 2.629 2.629 0 0 0 -2.626-2.627z" fill="#10489d" data-original="#000000" style="" class=""/><path xmlns="http://www.w3.org/2000/svg" d="m138.727 140h-85.159a1 1 0 1 1 0-2h85.159a1 1 0 0 1 0 2z" fill="#10489d" data-original="#000000" style="" class=""/></g></svg>
