<?xml version="1.0"?>
<svg xmlns="http://www.w3.org/2000/svg" xmlns:xlink="http://www.w3.org/1999/xlink" xmlns:svgjs="http://svgjs.com/svgjs" version="1.1" width="512" height="512" x="0" y="0" viewBox="0 0 512 512" style="enable-background:new 0 0 512 512" xml:space="preserve" class=""><g><g xmlns="http://www.w3.org/2000/svg"><path d="m447.207 440.952h15v15h-15z" transform="matrix(.996 -.09 .09 .996 -38.294 42.474)" fill="#ff9639" data-original="#000000" style="" class=""/><path d="m464.189 470.191-14.939 1.342 2.287 25.467h-66.796v-38.006h-15v38.006h-41.215l29.727-55.486-22.921-26.331 16.13-73.537 41.396 9.593c40.917 11.227 47.845 25.125 51.914 70.42l.454 5.054 14.939-1.341-.454-5.055c-2.163-24.082-5.358-41.691-14.592-55.055-9.122-13.202-23.61-21.734-48.443-28.531l-92.911-21.537-2.223-22.514c33.544-17.09 58.26-50.695 61.817-81.437h7.94c12.407 0 22.5-10.093 22.5-22.5v-30.007c0-9.778-6.271-18.114-15-21.21v-40.026c0-53.762-43.738-97.5-97.5-97.5h-65.599c-18.27 0-33.522 13.137-36.827 30.459-25.733 3.358-45.673 25.407-45.673 52.041v14.999h15v-14.999c0-18.109 12.904-33.261 30-36.745v21.745h15v-30c0-12.407 10.094-22.5 22.5-22.5h65.599c45.49 0 82.5 37.009 82.5 82.5v38.715c-61.243-.309-122.139-4.753-159.741-30.655l-7.391-5.091-3.698 8.177c-7.487 16.555-27.144 25.236-44.769 27.17v-23.316h-15v25.026c-8.729 3.096-15 11.432-15 21.21v30.007c0 12.407 10.093 22.5 22.5 22.5h7.943c3.558 30.741 28.272 64.345 61.815 81.435l-2.223 22.516-92.625 21.465-.287.072c-24.833 6.797-39.321 15.329-48.442 28.53-9.234 13.363-12.43 30.973-14.592 55.055l-8.233 91.684h423.888zm-145.126-50.851 21.079 24.215-28.633 53.445h-17.553l9.836-166.402 33.057 7.661zm-101.019 77.66h-17.553l-28.634-53.445 21.079-24.215-17.785-81.081 33.057-7.661zm7.315-130.456 30.641 19.251 30.641-19.252-7.711 130.457h-45.86zm153.439-177.801c0 4.136-3.365 7.5-7.5 7.5h-7.499v-37.507c0-1.986.785-3.865 2.209-5.29s3.304-2.209 5.29-2.209c4.135 0 7.5 3.364 7.5 7.5zm-238.098 7.5c-4.135 0-7.5-3.364-7.5-7.5v-30.007c0-4.136 3.365-7.5 7.5-7.5 4.136 0 7.5 3.365 7.5 7.5l.001 37.506h-7.501zm22.502 7.5-.001-45.007c0-3.568-.839-6.943-2.324-9.943 6.111-1.474 12.036-3.587 17.5-6.29 10.281-5.086 18.462-11.976 24.053-20.19 37.866 22.455 92.171 27.832 147.739 28.757-.884 2.43-1.37 5.01-1.37 7.667v45.006c0 17.67-10.451 39.129-27.274 56.002-18.835 18.892-42.106 29.296-65.524 29.296s-46.689-10.404-65.524-29.297c-16.824-16.873-27.274-38.331-27.275-56.001zm92.799 100.299c10.729 0 21.172-1.891 31.071-5.247l2.235 22.64-1.579 26.711-31.728 19.935-31.728-19.935-1.579-26.711 2.235-22.641c9.9 3.357 20.343 5.248 31.073 5.248zm-188.772 117.617c4.068-45.296 10.996-59.194 51.913-70.42l41.396-9.593 16.13 73.537-22.921 26.331 29.727 55.486h-41.216v-38.006h-15v38.006h-66.795z" fill="#ff9639" data-original="#000000" style="" class=""/><path d="m316 52.5h15v15h-15z" fill="#ff9639" data-original="#000000" style="" class=""/><path d="m286 37.5h15v15h-15z" fill="#ff9639" data-original="#000000" style="" class=""/></g></g></svg>
