<?xml version="1.0"?>
<svg xmlns="http://www.w3.org/2000/svg" xmlns:xlink="http://www.w3.org/1999/xlink" xmlns:svgjs="http://svgjs.com/svgjs" version="1.1" width="512" height="512" x="0" y="0" viewBox="0 0 511.999 511.999" style="enable-background:new 0 0 512 512" xml:space="preserve" class=""><g><g xmlns="http://www.w3.org/2000/svg"><path d="m226 142.5h-30v60h30v30h60v-30h30v-60h-30v-30h-60zm15-15h30v30h30v30h-30v30h-30v-30h-30v-30h30z" fill="#10489d" data-original="#000000" style="" class=""/><path d="m159.149 78.464c-24.601 25.332-38.149 58.727-38.149 94.036 0 74.439 60.561 135 135 135s135-60.561 135-135-60.561-135-135-135c-30.941 0-61.18 10.74-85.146 30.242l9.468 11.635c21.298-17.332 48.175-26.877 75.678-26.877 66.168 0 120 53.832 120 120s-53.832 120-120 120-120-53.832-120-120c0-31.384 12.043-61.069 33.911-83.585z" fill="#10489d" data-original="#000000" style="" class=""/><path d="m342.342 319.531 11.879 9.158c2.925-3.793 5.973-7.754 9.156-11.911l-11.908-9.121c-3.174 4.145-6.212 8.093-9.127 11.874z" fill="#10489d" data-original="#000000" style="" class=""/><path d="m256 0c-95.117 0-172.5 77.383-172.5 172.5 0 37.001 11.544 72.275 33.384 102.008 17.998 24.502 32.237 42.961 44.8 59.247 19.378 25.12 33.344 43.227 46.955 65.66-30.768 10.385-50.139 30.377-50.139 52.584 0 33.645 42.827 60 97.5 60s97.5-26.355 97.5-60c0-22.206-19.371-42.199-50.138-52.584 12.452-20.532 25.114-37.31 41.703-58.849l-11.885-9.152c-28.221 36.642-45.338 59.813-68.964 109.886l-.391.831c-3.482 7.404-5.101 9.869-7.825 9.869-2.725 0-4.344-2.464-7.826-9.869l-.392-.831c-24.896-52.765-42.416-75.477-74.222-116.707-12.513-16.221-26.695-34.605-44.588-58.965-19.935-27.141-30.472-59.344-30.472-93.128 0-86.846 70.654-157.5 157.5-157.5s157.5 70.654 157.5 157.5c0 33.784-10.537 65.987-30.474 93.128-7.408 10.086-14.765 19.942-22.487 30.128l11.953 9.063c7.77-10.248 15.17-20.163 22.624-30.311 21.84-29.733 33.384-65.007 33.384-102.008 0-95.117-77.383-172.5-172.5-172.5zm-21.4 448.513c3.668 7.802 8.692 18.487 21.4 18.487s17.731-10.685 21.4-18.486l.383-.813c6.306-13.367 12.142-24.762 17.862-35.014 25.859 7.958 42.855 23.351 42.855 39.313 0 24.393-37.78 45-82.5 45s-82.5-20.607-82.5-45c0-15.962 16.997-31.355 42.855-39.313 5.725 10.259 11.554 21.644 17.862 35.013z" fill="#10489d" data-original="#000000" style="" class=""/><path d="m301 89.999h15v15h-15z" fill="#10489d" data-original="#000000" style="" class=""/><path d="m271 75h15v15h-15z" fill="#10489d" data-original="#000000" style="" class=""/></g></g></svg>
