<?xml version="1.0"?>
<svg xmlns="http://www.w3.org/2000/svg" xmlns:xlink="http://www.w3.org/1999/xlink" xmlns:svgjs="http://svgjs.com/svgjs" version="1.1" width="512" height="512" x="0" y="0" viewBox="0 0 512 512" style="enable-background:new 0 0 512 512" xml:space="preserve" class=""><g><g xmlns="http://www.w3.org/2000/svg"><path d="m203.5 497h15v15h-15z" fill="#2da57c" data-original="#000000" style="" class=""/><path d="m353.682 30h15v15h-15z" fill="#2da57c" data-original="#000000" style="" class=""/><path d="m353.682 60h15v15h-15z" fill="#2da57c" data-original="#000000" style="" class=""/><path d="m481.181 135c-12.407 0-22.5-10.094-22.5-22.5v-7.5h-60v-105h-375.362v512h165.181v-15h-150.181v-482h345.362v90h-60v7.5c0 12.406-10.093 22.5-22.5 22.5h-7.5v37.499c0 35.886 8.084 67.265 24.028 93.265 15.46 25.21 37.646 44.258 65.972 56.697v114.539h-60v60h-90.181v15h100.788l64.393-64.394v-125.14c26.546-11.66 47.745-29.176 63.049-52.136l-12.481-8.32c-13.964 20.95-33.489 36.875-58.067 47.369-53.234-22.743-82.5-71.229-82.5-136.88v-23.252c14.671-2.991 26.256-14.576 29.247-29.247h106.506c2.99 14.671 14.576 26.256 29.247 29.247v23.252c0 29.276-5.798 55.283-17.232 77.299l13.312 6.914c12.555-24.173 18.92-52.506 18.92-84.213v-37.499zm-108.106 317-34.393 34.394v-34.394z" fill="#2da57c" data-original="#000000" style="" class=""/><path d="m413.682 252.5v-22.5h22.5v-45.001h-22.5v-22.499h-45v22.499h-22.5v45.001h22.5v22.5zm-52.501-37.5v-15.001h22.5v-22.499h15v22.499h22.5v15.001h-22.5v22.5h-15v-22.5z" fill="#2da57c" data-original="#000000" style="" class=""/><path d="m151 301.254v40.5h120v-40.5c0-23.527-13.617-43.922-33.377-53.75 11.135-8.2 18.377-21.393 18.377-36.251v-45c0-12.406-10.093-22.5-22.5-22.5h-45c-12.406 0-22.5 10.094-22.5 22.5v45c0 14.858 7.242 28.051 18.377 36.251-19.76 9.828-33.377 30.223-33.377 53.75zm37.5-142.501h45c4.136 0 7.5 3.364 7.5 7.5v13.351l-30-6-30 6v-13.351c0-4.136 3.365-7.5 7.5-7.5zm-7.5 52.5v-16.351l30-6 30 6v16.351c0 16.542-13.458 30-30 30s-30-13.458-30-30zm30 45c24.813 0 45 20.188 45 45.001v25.5h-90v-25.5c0-24.814 20.187-45.001 45-45.001z" fill="#2da57c" data-original="#000000" style="" class=""/><path d="m113.501 424.253h194.999v15h-194.999z" fill="#2da57c" data-original="#000000" style="" class=""/><path d="m173.5 50.004h75v15h-75z" fill="#2da57c" data-original="#000000" style="" class=""/><path d="m117.251 76.254h187.499v15h-187.499z" fill="#2da57c" data-original="#000000" style="" class=""/><path d="m173.5 106.254h75v15h-75z" fill="#2da57c" data-original="#000000" style="" class=""/><path d="m113.501 364.253h194.999v15h-194.999z" fill="#2da57c" data-original="#000000" style="" class=""/><path d="m113.501 394.253h194.999v15h-194.999z" fill="#2da57c" data-original="#000000" style="" class=""/></g></g></svg>
