<?xml version="1.0"?>
<svg xmlns="http://www.w3.org/2000/svg" xmlns:xlink="http://www.w3.org/1999/xlink" xmlns:svgjs="http://svgjs.com/svgjs" version="1.1" width="512" height="512" x="0" y="0" viewBox="0 0 512 512" style="enable-background:new 0 0 512 512" xml:space="preserve" class=""><g transform="matrix(0.8999999999999999,0,0,0.8999999999999999,25.600000000000023,25.600049591064476)"><g xmlns="http://www.w3.org/2000/svg"><path d="m196.001 497h15v15h-15z" fill="#21a766" data-original="#000000" style="" class=""/><path d="m428.499 444.5h-52.5v-22.501c0-13.953-9.575-25.711-22.499-29.05v-223.817l-67.5-60v-20.422c8.729-3.096 15-11.433 15-21.21v-45c0-12.406-10.094-22.5-22.5-22.5h-149.999c-12.406 0-22.5 10.094-22.5 22.5v15h15v-15c0-4.136 3.364-7.5 7.5-7.5h149.999c4.136 0 7.5 3.364 7.5 7.5v45c0 4.136-3.364 7.5-7.5 7.5h-22.5v-45h-15v45h-29.999v-45h-15v45h-30v-45h-15v45h-22.5c-4.136 0-7.5-3.364-7.5-7.5v-15h-15v15c0 9.777 6.271 18.114 15 21.21v20.422l-67.5 60v320.368c0 12.406 10.094 22.5 22.5 22.5h105v-15h-105c-4.136 0-7.5-3.364-7.5-7.5v-114.503h269.999v17.948c-9.972 2.563-17.952 10.116-21.108 19.819-7.339-3.754-15.509-5.763-23.893-5.763-28.948 0-52.5 23.552-52.5 52.5 0 14.679 6.063 27.963 15.808 37.5h-30.806v15h67.596v-.002c11.019-.02 21.5-3.42 30.292-9.691 5.499 5.953 13.374 9.692 22.111 9.692 7.655 0 14.645-2.886 19.951-7.621.847.072 1.697.121 2.548.121h60c16.542 0 30-13.458 30-30.001 0-16.542-13.458-29.999-30-29.999zm-37.5 15v30h-15.949c.619-2.398.949-4.911.949-7.5v-22.5zm-259.646-339.5h117.147v-15h-112.499v-15h134.999v25.868l67.5 60v19.131h-269.999v-19.131zm-62.852 239.997v-149.998h269.999v149.998zm277.499 47.003c8.271 0 14.999 6.729 14.999 14.999v22.501h-30.071v-22.501c0-8.27 6.761-14.999 15.072-14.999zm-30.072 22.452v41.868l-43.092-43.092c5.929-3.931 13.032-6.228 20.664-6.228 8.125 0 15.973 2.629 22.428 7.452zm-59.929 30.048c0-7.632 2.297-14.735 6.229-20.665l51.954 51.954c-6.082 4.039-13.212 6.211-20.683 6.211-20.678 0-37.5-16.822-37.5-37.5zm90.001 37.5c-8.311 0-15.072-6.729-15.072-15v-22.5h30.071v22.5c0 8.271-6.728 15-14.999 15zm82.499-7.5h-22.5v-30h22.5c8.271 0 15 6.729 15 14.999 0 8.272-6.728 15.001-15 15.001z" fill="#21a766" data-original="#000000" style="" class=""/><path d="m233.501 224.999h-60v29.999h-30v60h30v30h60v-30h30v-60h-30zm15 44.999v30h-30v30h-30v-30h-30v-30h30v-29.999h30v29.999z" fill="#21a766" data-original="#000000" style="" class=""/><path d="m308.5 254.999h15v15h-15z" fill="#21a766" data-original="#000000" style="" class=""/><path d="m308.5 224.999h15v15h-15z" fill="#21a766" data-original="#000000" style="" class=""/></g></g></svg>
