<?xml version="1.0"?>
<svg xmlns="http://www.w3.org/2000/svg" xmlns:xlink="http://www.w3.org/1999/xlink" xmlns:svgjs="http://svgjs.com/svgjs" version="1.1" width="512" height="512" x="0" y="0" viewBox="0 0 512 512" style="enable-background:new 0 0 512 512" xml:space="preserve" class=""><g><g xmlns="http://www.w3.org/2000/svg"><path d="m362 147.25c-24.718 0-48.91 6.071-70.541 17.611-20.606-58.257-76.232-100.111-141.459-100.111-38.19 0-74.577 14.365-102.456 40.448l10.248 10.954c25.09-23.474 57.837-36.402 92.208-36.402 74.439 0 135 60.561 135 135s-60.561 135-135 135c-24.21 0-47.963-6.488-68.69-18.763l-1.768-1.047h-44.731v-44.731l-1.047-1.768c-12.276-20.723-18.764-44.476-18.764-68.691 0-32.479 11.695-63.862 32.93-88.366l-11.336-9.823c-23.598 27.231-36.594 62.102-36.594 98.189 0 26.207 6.843 51.932 19.811 74.539v55.651h55.652c22.611 12.967 48.335 19.81 74.538 19.81 25.469 0 49.471-6.388 70.502-17.635 9.616 27.191 27.197 51.497 50.209 69.17 26.376 20.257 57.944 30.964 91.29 30.964 10.75 0 21.482-1.146 31.896-3.403l-3.178-14.659c-9.373 2.032-19.035 3.062-28.719 3.063-30.012 0-58.42-9.634-82.153-27.861-21.542-16.544-37.798-39.535-46.199-65.185 39.995-26.97 66.351-72.691 66.351-124.454 0-12.112-1.453-23.89-4.177-35.178 20.137-11.342 42.895-17.322 66.177-17.322 74.439 0 135 60.561 135 135 0 24.215-6.488 47.968-18.764 68.691l-1.047 1.768v44.731h-44.731l-1.767 1.046c-8.303 4.917-17.143 8.941-26.273 11.961l4.711 14.241c9.496-3.141 18.707-7.258 27.41-12.249h55.651v-55.651c12.967-22.607 19.81-48.331 19.81-74.538 0-82.711-67.29-150-150-150z" fill="#10489d" data-original="#000000" style=""/><path d="m120 184.75h-30v60h30v30h60v-30h30v-60h-30v-30h-60zm15-15h30v30h30v30h-30v30h-30v-30h-30v-30h30z" fill="#10489d" data-original="#000000" style=""/><path d="m414.5 199.749h15v15h-15z" fill="#10489d" data-original="#000000" style=""/><path d="m384.5 184.749h15v15h-15z" fill="#10489d" data-original="#000000" style=""/><path d="m172.5 102.25h15v15h-15z" fill="#10489d" data-original="#000000" style=""/><path d="m202.5 117.25h15v15h-15z" fill="#10489d" data-original="#000000" style=""/><path d="m317 252.25h105v15h-105z" fill="#10489d" data-original="#000000" style=""/><path d="m302 327.249h120v15h-120z" fill="#10489d" data-original="#000000" style=""/><path d="m302 289.75h120v15h-120z" fill="#10489d" data-original="#000000" style=""/></g></g></svg>
