<?xml version="1.0"?>
<svg xmlns="http://www.w3.org/2000/svg" xmlns:xlink="http://www.w3.org/1999/xlink" xmlns:svgjs="http://svgjs.com/svgjs" version="1.1" width="512" height="512" x="0" y="0" viewBox="0 0 512 512" style="enable-background:new 0 0 512 512" xml:space="preserve" class=""><g><g xmlns="http://www.w3.org/2000/svg"><path d="m443.682 59.999v-29.999h-30v-30h-375.363v45h15v-30h345.362v362.001h-60v60h-285.362v-377.001h-15v392.001h29.999v29.999h30v30h285.362v-15h-270.362v-15h330.363v-407.001h14.999v422.001h-29.999v15h44.999v-452.001zm-55.607 332.002-34.394 34.394v-34.394zm40.607 74.999h-345.364v-14.999h265.97l64.394-64.394v-342.607h15z" fill="#17a977" data-original="#000000" style="" class=""/><path d="m398.681 497h15.001v15h-15.001z" fill="#17a977" data-original="#000000" style="" class=""/><path d="m203.5 45v22.499h-22.5v45.001h22.5v22.5h45.001v-22.5h22.5v-45.001h-22.5v-22.499zm52.501 37.499v15.001h-22.5v22.5h-15.001v-22.5h-22.5v-15.001h22.5v-22.499h15.001v22.499z" fill="#17a977" data-original="#000000" style="" class=""/><path d="m166 167.003h172.501v15h-172.501z" fill="#17a977" data-original="#000000" style="" class=""/><path d="m106 317.002h45v-45h-45zm15-30h15v15h-15z" fill="#17a977" data-original="#000000" style="" class=""/><path d="m106 257.003h45v-45h-45zm15-30h15v15h-15z" fill="#17a977" data-original="#000000" style="" class=""/><path d="m106 377.001h45v-45h-45zm15-30h15v15h-15z" fill="#17a977" data-original="#000000" style="" class=""/><path d="m166 227.003h172.501v15h-172.501z" fill="#17a977" data-original="#000000" style="" class=""/><path d="m151 152.003h-45v45.001h45zm-15 30.001h-15v-15.001h15z" fill="#17a977" data-original="#000000" style="" class=""/><path d="m166 287.002h172.501v15h-172.501z" fill="#17a977" data-original="#000000" style="" class=""/><path d="m166 347.001h172.501v15h-172.501z" fill="#17a977" data-original="#000000" style="" class=""/><path d="m368.682 30h15v15h-15z" fill="#17a977" data-original="#000000" style="" class=""/><path d="m368.682 60h15v15h-15z" fill="#17a977" data-original="#000000" style="" class=""/></g></g></svg>
